<?xml version="1.0" standalone="no"?><!DOCTYPE svg PUBLIC "-//W3C//DTD SVG 1.1//EN" "http://www.w3.org/Graphics/SVG/1.1/DTD/svg11.dtd"><svg t="1678237894228" class="icon" viewBox="0 0 1024 1024" version="1.1" xmlns="http://www.w3.org/2000/svg" p-id="1664" xmlns:xlink="http://www.w3.org/1999/xlink" width="200" height="200"><path d="M512 512m-480 0a480 480 0 1 0 960 0 480 480 0 1 0-960 0Z" fill="#1296db" p-id="1665" data-spm-anchor-id="a313x.7781069.0.i1" class="selected"></path><path d="M716.731364 238.0814H307.26683c-19.711273 0-35.840813 16.127734-35.840813 35.840813v476.157381c0 19.713079 16.12954 35.840813 35.840813 35.840812h409.464534c19.711273 0 35.840813-16.127734 35.840812-35.840812V273.920406c0-19.713079-16.127734-35.839007-35.840812-35.839006z m-339.422956 78.156922H660.137089c11.263585 0 20.480722 7.828155 20.480723 17.397506 0 9.567544-9.217138 17.3957-20.480723 17.3957H377.308408c-11.263585 0-20.480722-7.828155-20.480722-17.3957 0-9.569351 9.215332-17.397506 20.480722-17.397506z m301.486928 96.883806c0 9.569351-9.217138 17.399312-20.480722 17.399312H378.24403c-11.263585 0-20.480722-7.829961-20.480722-17.399312s9.217138-17.399312 20.480722-17.399312h280.070584c11.263585 0 20.480722 7.829961 20.480722 17.399312z m-321.032028 77.147246c0-9.569351 9.217138-17.399312 20.480722-17.399312h98.372131c11.263585 0 20.480722 7.829961 20.480722 17.399312 0 9.567544-9.217138 17.397506-20.480722 17.397506h-98.372131c-11.263585-0.001806-20.480722-7.831768-20.480722-17.397506z m173.897391 204.287033c-18.475819 6.856409-36.964281 13.705593-55.53583 20.314551-6.9991 2.494389-11.191336 0.986196-7.961815-7.562641 7.127342-18.864156 14.272746-37.726506 21.627671-56.502158 2.483552-6.350668 6.852797-8.960655 12.55142-3.424592 11.514649 11.184111 22.799908 22.60303 34.061686 34.040012 1.497356 1.526255 2.27403 3.767774 2.992906 5.005035-0.827249 5.364472-4.315058 6.856409-7.736038 8.129793z m126.229453-122.947552c-31.709989 31.58536-63.241162 63.344117-94.905995 94.9656-2.209006 2.201782-5.026709 3.803898-6.84196 5.149532-4.790094 0.211328-6.950332-2.423947-9.193657-4.641984-10.174434-10.047999-20.095998-20.372349-30.429379-30.254176-6.224232-5.956912-5.033934-10.687401 0.559928-16.254169a17171.620059 17171.620059 0 0 0 94.80846-95.072168c5.581218-5.644436 10.149147-6.854603 16.116896-0.541865 9.822221 10.387568 19.974981 20.489754 30.302944 30.373386 6.161015 5.902725 5.200106 10.680176-0.417237 16.275844z m24.620578-25.568843c-5.438527 3.514903-8.615667 0.825442-11.958979-2.45104-10.210559-10.006456-20.04723-20.412086-30.525109-30.133159-6.926852-6.415692-5.732941-11.352089 0.648433-17.052518 6.881696-6.151983 12.887376-13.555677 21.838999-12.847639 12.423177 0.149916 33.456603 18.168762 36.724054 30.095229 2.94775 10.784936-4.520967 24.485111-16.727398 32.389127z" fill="#ffffff" p-id="1666" data-spm-anchor-id="a313x.7781069.0.i0" class="selected"></path></svg>