<?xml version="1.0" standalone="no"?><!DOCTYPE svg PUBLIC "-//W3C//DTD SVG 1.1//EN" "http://www.w3.org/Graphics/SVG/1.1/DTD/svg11.dtd"><svg t="1678241299035" class="icon" viewBox="0 0 1024 1024" version="1.1" xmlns="http://www.w3.org/2000/svg" p-id="1664" xmlns:xlink="http://www.w3.org/1999/xlink" width="200" height="200"><path d="M512 512m-512 0a512 512 0 1 0 1024 0 512 512 0 1 0-1024 0Z" fill="#1aaba8" p-id="1665"></path><path d="M704.400303 663.908475c-11.957173-5.97678 23.912539-53.807278 35.869713-65.762644-23.916152 5.974974-119.569922 107.614556-197.291546 119.569922-77.719817 5.97678-155.443247-29.892932-149.459242-35.875131 5.973168-5.97678 185.332567 71.743037 275.007751-83.694791-71.743037-5.982199-131.523483-5.982199-113.593142-23.916152 89.67699 23.916152 185.334373-23.910733 209.248718-119.56631-17.935759 5.97678-65.764451 53.803665-119.569922 35.867906 71.741231-5.978586 173.375394-47.828691 131.527095-227.184477-35.869712 59.785864-47.826885 89.680603-101.634163 107.614555-0.223971 0.063218-0.466005 0.155335-0.68817 0.223971 1.340215-8.173143 1.665334-16.313774 0.68817-24.134704-5.980393-71.741231 35.8661-95.655577 35.8661-95.655577s-5.974974-17.937565-59.782252-11.955366c-59.78767 5.974974-137.507488 53.801859-173.3772 131.521676-11.955367 35.871519-17.935759 59.785864-23.910733 95.657383-3.184365 22.265267-6.361505 39.455058-8.64276 50.666262-16.716561 6.491553-27.230565 9.117796-27.230565 9.117796s-11.955367-47.828691-41.848299-71.739425c-17.935759-17.937565-53.809084-53.81089-137.502069-11.960785 0 0 29.891126 0 23.908927 53.807278-11.95356 47.828691-23.908927 89.678796 35.873325 143.486074 41.848299 35.867906 47.826885 77.719817 47.826885 77.719817s-5.980393-53.807278-23.917958-95.657382c-17.932147-47.828691 41.850105-95.657383 41.850105-95.657383s-47.825079 47.826885-29.88932 101.637775c23.912539 53.800053 17.935759 95.651964 17.93576 95.651964s53.805472 29.891126 89.675184 47.826885c41.853717 17.933953 131.527095 23.914346 203.268326-11.958979 71.741231-35.867906 131.527095-113.587723 131.527095-113.587723s-53.800053 23.917958-71.735813 17.937565z m-396.793904-199.569188a8.807126 8.807126 0 0 1-8.80532-8.807126 8.807126 8.807126 0 1 1 8.80532 8.807126z" fill="#ffffff" p-id="1666"></path></svg>