<?xml version="1.0" standalone="no"?><!DOCTYPE svg PUBLIC "-//W3C//DTD SVG 1.1//EN" "http://www.w3.org/Graphics/SVG/1.1/DTD/svg11.dtd"><svg t="1678241341190" class="icon" viewBox="0 0 1024 1024" version="1.1" xmlns="http://www.w3.org/2000/svg" p-id="1664" xmlns:xlink="http://www.w3.org/1999/xlink" width="200" height="200"><path d="M512 512m-512 0a512 512 0 1 0 1024 0 512 512 0 1 0-1024 0Z" fill="#8992c8" p-id="1665"></path><path d="M297.444609 544.59323a218.064876 218.064876 0 0 1-2.429365-32.59323 216.43386 216.43386 0 0 1 52.799407-141.896601v35.575299h57.858628v-102.705252c0-15.977817-12.948787-28.93383-28.932023-28.933829h-102.701639v57.864047h30.322812a274.288875 274.288875 0 0 0-67.209426 180.09453c0 13.97472 1.034964 27.74895 3.065154 41.201672l4.315059 28.59426 57.206583-8.603023-4.29519-28.597873zM479.410382 297.450027a217.317101 217.317101 0 0 1 32.589618-2.431171 216.453728 216.453728 0 0 1 141.889376 52.795795h-35.562655v57.864047h102.703445c15.977817 0 28.930217-12.954206 28.930217-28.93383V274.039617h-57.860434v30.346293c-48.21161-41.853717-111.194483-67.232907-180.098143-67.232907-13.987364 0-27.729081 1.043995-41.185416 3.065154l-28.610516 4.30964 8.608442 57.212002 28.596066-4.289772zM544.573362 726.555391a217.257496 217.257496 0 0 1-32.586006 2.429365 216.448309 216.448309 0 0 1-141.894794-52.799407h35.580717v-57.858628h-102.703445c-15.977817 0-28.930217 12.948787-28.930217 28.932023v102.701639h57.860434v-30.299331a274.292488 274.292488 0 0 0 180.098143 67.185945c13.987364 0 27.729081-1.034964 41.185416-3.061542l28.60871-4.313252-8.606636-57.208389-28.612322 4.291577zM786.845191 512c0-13.987364-1.034964-27.739919-3.065155-41.19806l-4.315058-28.597872-57.208389 8.608441 4.298802 28.597873a218.03417 218.03417 0 0 1 2.429365 32.589618 216.453728 216.453728 0 0 1-52.801213 141.90202v-35.575299h-57.856822v102.708864c0 15.972399 12.948787 28.924798 28.930217 28.924798h102.703445v-57.860434h-30.326425c43.083753-49.615042 67.272644-113.4649 67.211233-180.099949z" fill="#ffffff" p-id="1666"></path></svg>