<?xml version="1.0" standalone="no"?><!DOCTYPE svg PUBLIC "-//W3C//DTD SVG 1.1//EN" "http://www.w3.org/Graphics/SVG/1.1/DTD/svg11.dtd"><svg t="1678242236643" class="icon" viewBox="0 0 1024 1024" version="1.1" xmlns="http://www.w3.org/2000/svg" p-id="2436" xmlns:xlink="http://www.w3.org/1999/xlink" width="200" height="200"><path d="M511.998194 512m-511.998194 0a511.998194 511.998194 0 1 0 1023.996388 0 511.998194 511.998194 0 1 0-1023.996388 0Z" fill="#e8989a" p-id="2437"></path><path d="M777.073543 655.51678c7.210428 0 9.601863-4.721458 5.225393-10.503166l-89.689633-117.973225c-4.385501-5.781709-1.986841-10.512197 5.229005-10.512197h23.498915c7.273646 0 9.605475-4.723264 5.225393-10.503166l-94.163639-123.975291c-4.448719-5.819639-2.057284-10.514003 5.22178-10.514004h17.191597c7.214041 0 9.609088-4.721458 5.221781-10.533872l-90.274849-118.786023c-4.385501-5.81422-11.595929-5.81422-15.98143 0l-90.274849 118.786023c-4.381888 5.812414-2.02116 10.533872 5.225393 10.533872h17.187985c7.24294 0 9.609088 4.696171 5.196493 10.514004l-94.194345 123.975291c-4.385501 5.779902-2.057284 10.503166 5.185656 10.503166h23.50614c7.246552 0 9.605475 4.730489 5.189269 10.512197l-89.626416 117.973225c-4.381888 5.781709-2.050059 10.503166 5.192881 10.503166h174.585561c7.246552 0 13.183596 5.911756 13.183596 13.183596v104.235119c0 7.24294 5.937043 13.210689 13.17637 13.210689h28.729727c7.210428 0 13.179983-5.937043 13.179984-13.210689v-104.235119c0-7.24294 5.937043-13.183596 13.179983-13.183596h174.672259z" fill="#ffffff" p-id="2438"></path><path d="M417.733406 754.813695c0 7.27184 5.937043 13.208883 13.183596 13.208883h17.52936c7.277258 0 13.214302-5.908144 13.214302-13.208883v-55.147493c0-7.248359-5.937043-13.183596-13.214302-13.183596h-17.52936c-7.246552 0-13.183596 5.908144-13.183596 13.183596v55.147493zM315.456229 531.29223c7.239328 0 16.78881-4.692558 21.174311-10.504972l84.867028-111.75983c4.412594-5.778096 2.050059-10.477879-5.192881-10.477879h-13.490654c-7.250165 0-9.605475-4.721458-5.19288-10.535678l59.312634-78.093704c4.385501-5.812414 4.385501-15.230043 0-21.015364l-6.000261-7.893179c-4.378276-5.783515-11.592317-5.783515-15.977817 0l-81.294326 107.002247c-4.381888 5.81422-2.053672 10.535678 5.221781 10.535678h13.524971c7.24294 0 9.605475 4.699783 5.225393 10.477879l-84.903152 111.75983c-4.381888 5.81422-2.046447 10.504972 5.225393 10.504972h17.50046zM343.59171 531.29223c-7.246552 0-16.78881 4.728683-21.170699 10.508585l-80.701885 106.252666c-4.385501 5.783515-2.050059 10.514003 5.225393 10.514004h17.52936c7.24294 0 16.78881-4.730489 21.167085-10.514004l80.709111-106.252666c4.385501-5.779902 2.02116-10.508585-5.229005-10.508585h-17.52936z" fill="#ffffff" p-id="2439"></path></svg>