<?xml version="1.0" standalone="no"?><!DOCTYPE svg PUBLIC "-//W3C//DTD SVG 1.1//EN" "http://www.w3.org/Graphics/SVG/1.1/DTD/svg11.dtd"><svg t="1678242234028" class="icon" viewBox="0 0 1024 1024" version="1.1" xmlns="http://www.w3.org/2000/svg" p-id="2280" xmlns:xlink="http://www.w3.org/1999/xlink" width="200" height="200"><path d="M511.998194 512m-511.998194 0a511.998194 511.998194 0 1 0 1023.996388 0 511.998194 511.998194 0 1 0-1023.996388 0Z" fill="#8cbb19" p-id="2281"></path><path d="M531.34461 494.273762l0.012644-0.012643c-11.854218 0-17.780424 9.312868-17.767781 27.897059v43.358298c0 18.437888 5.772677 27.662251 17.319839 27.673089 12.143213 0 18.204886-8.875762 18.18863-26.6309v-42.58343c0.037931-19.816034-5.886469-29.71231-17.753332-29.701473z" fill="#FFFFFF" p-id="2282"></path><path d="M779.322287 505.064117h-0.010838a136.505036 136.505036 0 0 0-57.611176-45.155486c-21.680052-90.981081-103.471088-156.100711-198.030289-156.100711-91.161703 0.057799-171.177225 60.692586-195.891726 148.44234-63.349535 12.587543-109.059531 68.063768-109.297952 132.646951 0 74.544483 60.649237 135.293063 135.293063 135.293063h316.4352c74.557127 0 135.305706-60.661881 135.305706-135.293063a134.34841 134.34841 0 0 0-26.191988-79.833094z m-318.83386 94.931283h-0.012643c-5.711266 8.93898-15.482913 13.409373-29.336617 13.409373-16.376992 0-27.74895-4.255453-34.144773-12.741072-6.381373-8.489231-9.547676-22.568712-9.475427-42.23483v-28.294428c0-21.071356 3.305382-35.672834 9.910726-43.79179 6.690237-8.14605 17.256621-12.280486 31.682896-12.280487 13.584577 0 23.401379 3.637726 29.437765 10.900535 6.047223 7.262808 9.065415 18.477625 9.065415 33.700443h-24.582647c0-8.234555-0.832667-14.354026-2.534126-18.36564-1.688815-3.997164-4.864149-5.996649-9.544063-5.996649-11.796419 0-17.668439 9.285774-17.668439 27.859129v43.358299c0 9.970331 1.513612 17.081417 4.519161 21.331452 3.018193 4.246422 7.448849 6.365117 13.320869 6.365117 4.408982 0 7.674626-2.234293 9.74636-6.715524 2.089796-4.504711 3.193396-12.266036 3.193396-23.240626h24.992658c-0.027093 15.556968-2.884532 27.808555-8.570511 36.736698z m114.38246-41.393132c0 19.756428-3.166303 33.832297-9.484458 42.238442-6.330799 8.406145-17.554647 12.591156-33.695024 12.540582-15.692435 0-26.916282-3.99897-33.709474-12.018584-6.776935-8.017808-10.181659-22.323066-10.181659-42.921193v-26.6309c0-22.001559 3.366793-37.121422 10.096766-45.355977 6.729974-8.241779 17.87796-12.352735 33.447572-12.365378 17.408343 0 29.025947 4.64379 34.825718 13.918727 5.808802 9.289387 8.715009 23.887252 8.700559 43.802628v26.791653z m60.481259 39.693479l0.010837 0.010838v12.253392h-45.899649c0.234809-7.82093 1.067476-14.104768 2.682236-18.820806 1.621985-4.716039 6.05806-11.048644 13.496072-18.896668l7.349507-7.723395a37.3472 37.3472 0 0 0 6.256744-7.772162 17.392087 17.392087 0 0 0 1.612954-8.342928c0-6.480715-2.508839-9.74636-7.548191-9.74636-3.574508 0-5.908144 1.128887-6.977426 3.375824-1.053026 2.246937-1.526255 6.283838-1.526255 12.255199h-14.650246v-3.364987c0-16.328224 7.67282-24.481499 22.993173-24.481498 7.833574 0 13.656825 2.106052 17.532973 6.256744a21.618641 21.618641 0 0 1 5.806995 15.390796c0 8.270679-3.426398 15.918212-10.342412 22.908281l-11.919243 12.415953c-5.424077 5.548706-8.14605 10.317126-8.146049 14.279971h29.26798z" fill="#FFFFFF" p-id="2283"></path></svg>