<?xml version="1.0" standalone="no"?><!DOCTYPE svg PUBLIC "-//W3C//DTD SVG 1.1//EN" "http://www.w3.org/Graphics/SVG/1.1/DTD/svg11.dtd"><svg t="1678242231263" class="icon" viewBox="0 0 1024 1024" version="1.1" xmlns="http://www.w3.org/2000/svg" p-id="2125" xmlns:xlink="http://www.w3.org/1999/xlink" width="200" height="200"><path d="M511.998194 512m-511.998194 0a511.998194 511.998194 0 1 0 1023.996388 0 511.998194 511.998194 0 1 0-1023.996388 0Z" fill="#efb336" p-id="2126"></path><path d="M741.897419 585.186206c22.978724-102.808206-26.603806-208.127056-120.480256-255.923235-9.645212-60.42346-66.447202-101.585395-126.868855-91.94199-47.301275 7.549997-84.391992 44.64252-91.94199 91.94199-77.253813 40.540596-125.752611 120.487482-126.023544 207.731494a235.733315 235.733315 0 0 0 5.537869 48.193548c-50.71503 34.229665-64.081054 103.091782-29.851389 153.810424 34.226053 50.718643 103.091782 64.08286 153.806812 29.855002a110.759184 110.759184 0 0 0 16.749073-13.880797 233.213638 233.213638 0 0 0 178.096851 0c42.903131 43.623812 113.04947 44.21264 156.673283 1.309509 43.623812-42.904937 44.21264-113.04947 1.307703-156.675088a110.645392 110.645392 0 0 0-17.00375-14.142699v-0.278158zM512.012644 287.716311c30.593745 0 55.391332 24.803006 55.391332 55.396751 0 30.593745-24.797587 55.394945-55.391332 55.394944s-55.396751-24.799393-55.396751-55.394944c0-30.593745 24.801199-55.396751 55.396751-55.396751z m-166.184835 443.159557c-30.593745 0-55.398557-24.799393-55.398557-55.393138s24.803006-55.394945 55.398557-55.394945c30.593745 0 55.393138 24.799393 55.393139 55.394945 0 30.591939-24.801199 55.393138-55.393139 55.393138z m105.802918-24.649477a110.806145 110.806145 0 0 0 4.985166-30.743661c0-61.189297-49.600593-110.789889-110.788084-110.78989a106.821625 106.821625 0 0 0-11.633859 0c-10.640439-68.75555 19.351835-137.478588 76.997329-176.435129 25.20218 55.757995 90.829358 80.528489 146.587353 55.329921a110.788083 110.788083 0 0 0 55.329921-55.329921 179.207676 179.207676 0 0 1 78.935403 148.736754 181.100594 181.100594 0 0 1-2.490777 27.698375 107.307498 107.307498 0 0 0-11.357508 0c-61.185684 0-110.791696 49.600593-110.791695 110.78989a110.733897 110.733897 0 0 0 4.988778 30.743661 185.319923 185.319923 0 0 1-120.762027 0z m226.564944 24.649477c-30.593745 0-55.394945-24.799393-55.394944-55.393138s24.799393-55.394945 55.394944-55.394945 55.394945 24.799393 55.394945 55.394945c-0.001806 30.591939-24.801199 55.393138-55.394945 55.393138z" fill="#ffffff" p-id="2127"></path></svg>