<?xml version="1.0" standalone="no"?><!DOCTYPE svg PUBLIC "-//W3C//DTD SVG 1.1//EN" "http://www.w3.org/Graphics/SVG/1.1/DTD/svg11.dtd"><svg t="1678242228525" class="icon" viewBox="0 0 1024 1024" version="1.1" xmlns="http://www.w3.org/2000/svg" p-id="1970" xmlns:xlink="http://www.w3.org/1999/xlink" width="200" height="200"><path d="M511.998194 512m-511.998194 0a511.998194 511.998194 0 1 0 1023.996388 0 511.998194 511.998194 0 1 0-1023.996388 0Z" fill="#be8dbd" p-id="1971"></path><path d="M332.499716 832.89295l87.074228-316.26361h-124.757385c2.861052-6.953945 4.768419-11.908405 6.917821-16.750879 43.775535-98.666544 87.628737-197.293352 131.277837-296.012276 3.765968-8.519937 6.984651-14.507555 18.67089-14.426275 89.227241 0.60689 178.46532 0.334151 267.694368 0.366662 2.185526 0 4.374664 0.344988 9.798741 0.800155-56.146332 86.427601-111.32453 171.359653-168.301724 259.060639h133.161724a13582201.024832 13582201.024832 0 0 1-358.778403 384.889112c-0.919366-0.550897-1.838731-1.109019-2.758097-1.663528z" fill="#ffffff" p-id="1972"></path></svg>