<?xml version="1.0" standalone="no"?><!DOCTYPE svg PUBLIC "-//W3C//DTD SVG 1.1//EN" "http://www.w3.org/Graphics/SVG/1.1/DTD/svg11.dtd"><svg t="1678242224958" class="icon" viewBox="0 0 1024 1024" version="1.1" xmlns="http://www.w3.org/2000/svg" p-id="1814" xmlns:xlink="http://www.w3.org/1999/xlink" width="200" height="200"><path d="M511.998194 512m-511.998194 0a511.998194 511.998194 0 1 0 1023.996388 0 511.998194 511.998194 0 1 0-1023.996388 0Z" fill="#4f68b0" p-id="1815"></path><path d="M802.042721 354.958249a25.82352 25.82352 0 0 0-12.831383-20.614383l-133.36402-76.997329-1.531674-0.7839a25.781977 25.781977 0 0 0-24.346032 0.948266l-118.124947 69.326315-120.140687-69.36244-1.578636-0.845311a25.953567 25.953567 0 0 0-11.37557-2.642499c-4.560704 0-9.054578 1.213779-13.021037 3.525741l-131.053865 76.943143-1.155981 0.715263-0.361243 0.238421a25.754883 25.754883 0 0 0-11.225654 21.313389v156.344551l0.02348 0.341375c0.534641 8.005165 4.856924 15.410664 11.536324 19.797972l71.497391 47.266957 1.056639 0.668301 0.40098 0.238421a25.819907 25.819907 0 0 0 12.741073 3.372212c8.716815 0 16.779779-4.343958 21.568066-11.621216l0.666495-1.058445 0.231196-0.384725c6.693849-11.78197 3.072379-26.851259-8.23636-34.300107l-59.910494-39.550788v-126.343245l105.378456-61.807024 107.164807 61.924428v126.037994l-61.841342 39.695286-1.253516 0.895884c-10.691013 8.014196-13.470785 23.141284-6.334412 34.433768a25.679022 25.679022 0 0 0 21.835387 12.029422c4.874986 0 9.637987-1.379952 13.84106-4.033288l59.42462-38.197929 57.479322 38.001051 1.276997 0.803767 0.205909 0.115599a25.850613 25.850613 0 0 0 12.681467 3.339699c8.659016 0 16.691274-4.298802 21.490399-11.498393a25.641091 25.641091 0 0 0 3.830992-19.382541 25.67541 25.67541 0 0 0-11.025164-16.434791l-59.96468-39.641098v-126.247516l105.42903-61.839536 107.285824 61.928041v126.034382L688.566984 537.35029l-1.248098 0.892273c-10.691013 8.014196-13.474397 23.14309-6.336218 34.435574a25.688053 25.688053 0 0 0 21.837193 12.027615c4.874986 0 9.637987-1.379952 13.84106-4.033288l73.740716-47.400617 1.226423-0.874211a25.935505 25.935505 0 0 0 10.43453-20.664956v-156.424025l-0.019869-0.350406z" fill="#ffffff" p-id="1816"></path><path d="M658.289327 490.769696l-71.497391-47.266957-1.056639-0.668301-0.406399-0.242033a25.854225 25.854225 0 0 0-30.461891 3.643144h-1.242679l-3.616052 6.039998c-6.726361 11.796419-3.101279 26.876546 8.232748 34.316364l60.080278 39.626649v126.337826l-105.475991 61.80883-107.215381-61.926234v-126.009095l61.852179-39.664579 1.271578-0.90311c10.685594-8.016002 13.465366-23.14309 6.3308-34.43738a25.691666 25.691666 0 0 0-21.837194-12.027616c-4.874986 0-9.639793 1.379952-13.842866 4.035095l-73.507713 47.266957-1.41427 0.973552a25.847001 25.847001 0 0 0-10.450786 20.673988v156.407768l0.025287 0.354019a25.837969 25.837969 0 0 0 12.849446 20.596321l133.342345 77.04971 1.351052 0.67372c3.498647 1.706877 7.4055 2.609987 11.299709 2.609987a25.774752 25.774752 0 0 0 13.049936-3.551028l131.245325-76.952174 1.08915-0.688169 0.328732-0.216747a25.839776 25.839776 0 0 0 11.211204-21.277265v-156.416799l-0.021674-0.33957a26.02401 26.02401 0 0 0-11.512843-19.826871z" fill="#ffffff" p-id="1817"></path></svg>