<?xml version="1.0" standalone="no"?><!DOCTYPE svg PUBLIC "-//W3C//DTD SVG 1.1//EN" "http://www.w3.org/Graphics/SVG/1.1/DTD/svg11.dtd"><svg t="1678415297739" class="icon" viewBox="0 0 1024 1024" version="1.1" xmlns="http://www.w3.org/2000/svg" p-id="1664" xmlns:xlink="http://www.w3.org/1999/xlink" width="200" height="200"><path d="M512 512m-512 0a512 512 0 1 0 1024 0 512 512 0 1 0-1024 0Z" fill="#17abe3" p-id="1665"></path><path d="M330.171499 743.911354c30.590133 0 60.013448-0.06683 89.431344 0.034318 8.008777 0.027093 7.790225-5.375309 7.788419-10.866216 0-31.11213-0.007225-62.213423 0.018062-93.334584 0.018062-14.771263 0.055993-14.801968 14.964528-14.805581 95.991533-0.007225 191.95778-0.010837 287.925832 0.001806 14.689983 0.001806 14.718882 0.039737 14.726108 15.060258 0.018062 30.442023 0.382919 60.893077-0.198685 91.338712-0.196878 10.237652 3.348731 14.016263 13.18179 12.647148 1.956136-0.256483 3.97007-0.041543 5.956912-0.028899 12.547807 0.097536 12.956012 0.491292 13.021036 12.688692 0.068636 13.505103-0.254677 13.897053-13.794098 13.897052-166.789918 0.018062-333.603316 0.01445-500.39504 0.003613-12.903632 0-19.561357-11.494781-13.55929-23.144897 1.735777-3.35415 4.694364-3.305382 7.624053-3.36318 6.607151-0.115598 13.282938-0.559928 19.850352 0.03793 8.780033 0.789318 12.108895-2.796028 13.535808-11.422532 6.610763-40.13239 13.92234-80.156407 20.896153-120.223773 6.348861-36.489246 12.37441-73.045321 19.042972-109.483993 1.450394-7.954591-0.131854-10.96014-8.507294-10.627795-11.893955 0.460586-23.824035 0.308864-35.739664 0.043349-6.652306-0.142691-9.945044 2.306542-9.536839 9.227975 0.218553 3.623276-0.142691 7.284483 0.032512 10.911372 0.346794 7.04245-1.668947 11.364733-9.872795 11.350283-7.862473-0.01445-10.79758-3.592571-10.187078-10.987233a3.552834 3.552834 0 0 0-0.01445-0.988002c-4.51013-26.670637 3.269257-46.988799 27.846485-61.214584 13.573739-7.867892 24.645865-19.982206 37.486279-29.271592 9.247844-6.670368 12.909051-14.411825 12.390666-25.910219-0.993421-22.528975 1.871243-20.058067-20.486141-20.198952-9.607281-0.068636-19.200113 0.135466-28.792945-0.018062-5.873826-0.097536-8.536193 2.487164-8.353765 8.33209 0.130048 3.961039-0.195072 7.950978 0 11.906599 0.364856 7.167079-1.943492 11.216623-10.031743 11.196755-7.965428-0.021675-10.633214-3.858085-10.047999-11.128119 0.054187-0.653851 0.101148-1.340215-0.025287-1.979616-4.717845-26.88377 4.194042-46.517376 28.337777-60.83889 15.221011-9.027485 28.027107-22.066583 42.093945-33.077297 4.775644-3.746099 7.091218-7.932916 7.205009-14.243847 0.417237-21.766751 11.055869-31.912285 32.699798-31.941185 21.510268-0.0289 43.018729-0.121017 64.534415 0.039737 20.079742 0.146304 31.706376 11.245522 31.832812 31.133805 0.055993 7.167079 2.906207 11.63386 8.156887 15.811645 20.982851 16.676824 41.674902 33.713086 62.693877 50.33753 4.882211 3.863503 7.10928 8.138825 6.912402 14.354026-0.339569 10.909566-0.240227 21.837193-0.106567 32.759403 0.070443 7.354926-4.381888 8.675272-10.382149 8.682497-5.837701 0.007225-9.226169-1.945298-9.690368-8.47117-0.512966-7.100249 3.346925-16.102447-2.454652-20.870866-6.083347-5.003228-15.309516-1.598504-23.139478-1.932654-7.596959-0.321507-15.239074 0.135466-22.837838-0.102955-6.231457-0.193265-9.408597 2.241518-8.924531 8.693334 0.025287 0.328732 0.036124 0.671914-0.025287 0.988002-2.971231 17.991752 2.756291 31.070587 18.557099 41.736314 18.315065 12.354541 34.793206 27.431055 52.001058 41.411193 6.097797 4.970716 10.047999 28.464213 5.848539 34.928672-2.897176 4.483037-7.660177 2.906207-11.78197 3.021805-3.715393 0.093923-6.787773-1.410657-6.925045-5.481876-0.269127-7.436206-4.85873-8.241779-10.786743-8.149662-11.917436 0.184234-23.820422 0.08128-35.737858 0.041543-5.07367-0.007225-9.401372 0.251065-8.138825 7.517485 1.053026 5.969555-3.700944 6.083347-7.755906 6.13934a1195.229605 1195.229605 0 0 1-28.791139 0.018063c-2.855633-0.039737-6.612569 1.177655-8.212879-1.856794-1.813444-3.411949 2.36976-4.869568 3.812929-7.248359 0.49671-0.827249 0.948265-1.674365 2.033803-3.581733h-59.321666c10.539291 10.275583 19.30668 19.776297 29.145157 27.987371 3.91769 3.285513 6.142952-5.07367 11.359315-4.961685 0.419043 8.760164-2.284868 16.889958-3.424593 25.211211-0.106567 0.827249-1.072894 2.225262-1.625597 2.22165-13.810354-0.128242-17.861704 12.988524-26.527945 19.734754-6.740811 5.257905-12.224493 12.092639-18.450532 18.024264-3.780417 3.55464-4.558898 6.901565-1.016902 11.0938a6004.821759 6004.821759 0 0 1 36.333911 43.347461c3.496841 4.21391 6.493359 3.737068 9.565738-0.303445 0.991614-1.316734 1.995873-2.662367 3.195203-3.778611 2.884532-2.673205 4.761195-9.603669 9.424853-6.099603 3.847247 2.891757 3.021805 9.977556-0.330538 13.6496-7.219459 7.954591-8.350153 15.004265 0 22.552456 0.476842 0.422655 0.834473 1.08915 0.99342 1.706878 1.255323 4.837056 3.184365 11.574254-0.451555 14.001813-3.867116 2.597344-6.444591-4.006195-9.007616-7.069543-8.715009-10.42008-8.69514-10.398405-17.280102-0.171591-17.001944 20.273007-34.204378 40.387067-51.29302 60.602276-2.927882 3.482391-6.404854 6.608957-8.492844 12.753715z m154.897769-46.210319c0 12.553225 0.077667 25.099226-0.045156 37.663289-0.070443 5.59928 1.845956 8.705978 7.981684 8.59941 11.236491-0.184234 22.467564-0.16256 33.693218-0.014449 6.130309 0.083086 8.032258-3.142822 8.025033-8.684303a12767.62171 12767.62171 0 0 1-0.010837-75.319352c0.016256-5.606505-2.068121-8.720428-8.109926-8.644566a1434.391124 1434.391124 0 0 1-33.685993-0.007225c-6.200751-0.083086-7.952784 3.218683-7.889566 8.73849 0.111986 12.549613 0.041543 25.117288 0.041543 37.668706z m-138.190239-97.508757c-7.55361 43.470284-14.66289 84.335999-21.770363 125.20352 21.419957-22.640961 41.167354-46.058596 60.994225-69.423851 3.222296-3.803898 2.456458-7.116505-0.502129-10.555546-12.432209-14.475043-24.833711-28.98621-38.721733-45.224123z m265.4384 80.430952h0.016256c0 7.268227 0.144498 14.525617-0.023481 21.77217-0.151722 5.913563 2.635274 8.342928 8.388083 8.303191 11.198561-0.115598 22.426021-0.149916 33.624582 0.025287 6.184495 0.101148 9.065415-2.330023 8.960655-8.758358a1553.932147 1553.932147 0 0 1-0.01445-42.547306c0.079474-5.99123-2.606375-8.225523-8.38989-8.153275-11.198561 0.164366-22.433246 0.288995-33.622775-0.045155-7.103861-0.198684-9.296612 3.097666-9.004004 9.627149 0.278158 6.587282 0.065024 13.185402 0.065024 19.776297zM397.973365 472.380576c6.594507 0 13.20527 0.018062 19.821453-0.007225 5.310285-0.021675 6.672175-2.172882 3.509484-6.657725-6.123084-8.630117-12.27868-17.220496-18.360221-25.879512-2.709329-3.874341-5.324735-4.703395-8.351959-0.319701-6.19172 8.978717-12.457496 17.90686-18.690759 26.849452-2.888145 4.136243-1.542511 6.002067 3.231327 6.012905 6.265775 0.016256 12.551419 0.005419 18.840675 0.001806z m-45.146455 94.262981c0.852536 0.556316 1.715908 1.114437 2.577475 1.67256 9.981169-10.47246 19.938857-20.975627 29.977824-31.392095 2.413109-2.521482 3.283707-4.853312 0.456974-7.638502-5.902725-5.803383-11.682627-11.718752-17.614252-17.475173-2.729198-2.642499-5.247068-3.233133-6.088766 1.60031-3.115729 17.738881-6.207976 35.486794-9.309255 53.2329z m71.809867-191.329215c-16.337255 0-30.100647-0.012644-43.840559 0.005419-5.350022 0.007225-6.536708 2.022966-3.274676 6.536708a1442.685284 1442.685284 0 0 1 17.569097 24.989046c2.380597 3.45891 4.325896 4.641984 7.230297 0.357632 6.789579-10.001037 13.842866-19.825065 22.315841-31.888805z m-134.361053-23.35803c0.337763 0.978971 0.67372 1.956136 1.004258 2.929688 12.098058 0 24.187085 0.05238 36.276111-0.028899 3.991745-0.023481 6.059866-2.346279 6.106828-6.273001 0.083086-8.249004 0.117404-16.503427 0.068637-24.759656-0.018062-3.738874-1.8586-4.999615-4.940011-2.573863-12.896407 10.159984-25.688053 20.46266-38.515823 30.705731z m215.628285 2.871889c0.319701-0.818217 0.612308-1.636435 0.90311-2.454652-7.255584-5.935237-14.252878-12.231718-21.86248-17.699145-6.755261-4.860537-13.346156-16.288487-20.023749-13.008392-5.185656 2.537738-1.172236 15.813451-1.632823 24.29907-0.063218 0.980777 0.059605 1.974198 0.122823 2.964006 0.209521 3.444461 1.923624 5.805189 5.424077 5.84312 12.37441 0.140885 24.727144 0.055993 37.069042 0.055993zM290.380484 469.598998c0.354019 0.94104 0.702619 1.887499 1.058445 2.826734 4.88763 0 9.789709 0.088505 14.689983-0.009032 32.343972-0.643014 27.19444 5.487295 27.69115-28.740564a37.876422 37.876422 0 0 0-0.086698-2.971231c-0.249258-4.273515-2.546769-4.244616-5.174819-2.129532-12.77539 10.28642-25.473113 20.675794-38.178061 31.023625z m173.895585-33.92622c-1.743002 11.630247-0.96994 21.401894-0.744162 31.139223 0.068636 2.50342 1.425107 4.909304 3.988133 4.958073 12.811515 0.204103 25.651929 0.09573 38.490536 0.09573 0.140885-0.774868 0.276352-1.542511 0.420849-2.313768-13.673081-10.990845-27.338938-21.969047-42.155356-33.879258z m-96.038495 15.479301c0.717069 0.301639 1.441363 0.610502 2.158433 0.917559 5.891888-8.234555 11.821706-16.46369 17.7154-24.716307 1.381758-1.938073 2.572057-4.19946 1.099988-6.404854-6.267582-9.323705-12.710366-18.533618-19.082709-27.783268-0.628564 0.370275-1.257129 0.738744-1.891112 1.105406v56.881464z m53.913845-96.66706c0.489485-0.872404 0.991614-1.737583 1.477488-2.609987-6.657725-6.278419-13.299194-12.564063-19.974981-18.835256-1.988648-1.867631-4.201266-3.690106-6.921433-1.625598-8.418789 6.408467-16.021167 13.624313-23.451954 23.070841h48.87088z m6.787773 40.329268c-0.641208-0.341375-1.275191-0.679139-1.920012-1.015095-5.837701 8.203849-11.682627 16.402279-17.495041 24.625996-1.640047 2.326411-2.219844 4.972522-0.568959 7.387438 5.994842 8.715009 12.139601 17.305389 18.22656 25.939118 0.572572-0.343182 1.163205-0.68817 1.757452-1.038577v-55.89888z m-52.120269-108.438191c5.946074 8.72404 12.713979 13.98917 18.614898 20.036392 1.71049 1.752033 4.087475 2.891757 6.161014 0.93201 6.683012-6.35428 13.176371-12.925306 21.300746-20.966596l-46.076658-0.001806z m-8.344734 51.76625c1.018708 0.576184 2.030191 1.161399 3.045286 1.741195 4.75397-5.407821 9.460978-10.869829 14.287196-16.209013 2.254162-2.483552 3.507678-4.92556 0.686363-7.674627-5.512582-5.393371-10.282807-11.641084-18.018845-16.69308v38.835525z m60.860565-17.050712c0-1.444976 0.070443-2.113277-0.018062-2.754485-0.803768-5.340991 2.752678-13.481622-2.089796-15.372734-4.483037-1.764676-7.994327 6.359699-12.271455 9.72288-5.846732 4.598635-5.485489 9.190045 0.180622 13.593607 4.253647 3.3108 7.629471 11.482137 12.275067 9.513358 4.667271-1.959748 1.024126-10.134697 1.923624-14.702626z" fill="#ffffff" p-id="1666"></path><path d="M649.110119 529.926728c2.393241-13.049936 3.908659-26.365385 0.328732-39.364747-3.480585-12.672436-1.871243-15.943499 10.799387-16.120509 7.604184-0.099342 15.237267 0.22939 22.834226-0.048767 9.253262-0.337763 11.751264 4.649209 10.105798 12.567675-1.081925 5.207331-2.003097 10.342413-1.963361 15.681597 0.14811 12.549613 0.460586 13.015617 12.676048 13.080641 13.232364 0.043349 26.48279 0.292608 39.704317-0.086698 7.141792-0.205909 10.103992 3.05793 11.126312 9.62715 3.800286 24.512204 7.992521 48.957579 11.579673 73.505907 1.921818 13.07161-0.048768 14.899504-13.371443 14.90131-110.506313 0.016256-221.039719 0.016256-331.564094 0.003613-14.359445-0.005419-15.161406-0.233002-14.236622-14.227591 1.735777-25.769333 7.470524-50.998607 11.429757-76.453657 1.027739-6.695656 5.462008-7.284483 10.831898-7.270034 25.48395 0.045155 50.951645 0.019868 76.441014 0.016256h120.120819c16.741848-0.001806 16.741848 0.001806 23.157539 14.187854z" fill="#ffffff" p-id="1667"></path></svg>