<?xml version="1.0" standalone="no"?><!DOCTYPE svg PUBLIC "-//W3C//DTD SVG 1.1//EN" "http://www.w3.org/Graphics/SVG/1.1/DTD/svg11.dtd"><svg t="1678415270331" class="icon" viewBox="0 0 1024 1024" version="1.1" xmlns="http://www.w3.org/2000/svg" p-id="1664" xmlns:xlink="http://www.w3.org/1999/xlink" width="200" height="200"><path d="M511.998194 512m-511.998194 0a511.998194 511.998194 0 1 0 1023.996388 0 511.998194 511.998194 0 1 0-1023.996388 0Z" fill="#5e2121" p-id="1665"></path><path d="M758.231062 409.265849H265.633472c-18.856931 0.829055-33.469247 16.794229-32.640192 35.65116 0.780287 17.693726 14.946466 31.865324 32.640192 32.638386h172.031566v17.063355l-130.150756 17.119348a225.690734 225.690734 0 0 0 24.026331 94.644094 90.834777 90.834777 0 0 1 33.185671-6.637857c46.555307 0.258289 85.739432 34.92506 91.656606 81.102867h133.401951c6.063479-45.997185 45.126587-80.47069 91.524753-80.772329a89.74382 89.74382 0 0 1 19.514395 2.125921l18.8479-124.647205h38.698252c18.856931-0.827249 33.469247-16.794229 32.636579-35.65116-0.778481-17.693726-14.94466-31.859905-32.636579-32.638386h-0.139079z m-393.439754 217.956503c-36.435059-0.290801-66.206974 29.006078-66.501389 65.439331-0.294414 36.431447 29.002466 66.205168 65.437525 66.501388 36.433253 0.290801 66.208781-29.006078 66.499582-65.442943l0.003613-0.523804c0.075861-36.259856-29.181282-65.75542-65.439331-65.973972z m0 94.644094c-15.873057 0.144498-28.859775-12.603799-29.002466-28.469632-0.14811-15.873057 12.600187-28.863387 28.471437-29.002465 15.869444-0.14811 28.854356 12.598381 29.002466 28.467824l0.003612 0.263709c0.070443 15.802614-12.677854 28.664703-28.475049 28.740564z m316.319602-94.644094c-36.438671-0.290801-66.205168 29.006078-66.497776 65.439331-0.298026 36.431447 29.002466 66.205168 65.437525 66.501388 36.433253 0.290801 66.206974-29.006078 66.497776-65.442943v-0.523804c0.074055-36.259856-29.181282-65.75542-65.437525-65.973972z m0 94.644094c-15.873057 0.144498-28.854356-12.603799-29.002466-28.469632-0.149916-15.873057 12.598381-28.863387 28.471437-29.002465 15.867638-0.14811 28.857968 12.598381 28.998854 28.467824 0.003612 0.088505 0.003612 0.178816 0.003612 0.263709 0.074055 15.802614-12.672436 28.664703-28.467825 28.740564h-0.003612z m26.547813-333.774907s-19.911763-35.307978-47.718512-40.350943l-2.32641-38.031757-26.547814-2.389629s-17.984527-63.179751-65.703039-14.731525l-55.487062 4.71062 0.79293-22.964274h-39.82172s-16.987494-21.371189-27.741725 0v55.550279l-95.50566-3.518515v37.968539l-36.967894 2.386016s-17.720819 6.639663-3.052511 21.304359l400.079417 0.06683z" fill="#ffffff" p-id="1666"></path></svg>