<?xml version="1.0" standalone="no"?><!DOCTYPE svg PUBLIC "-//W3C//DTD SVG 1.1//EN" "http://www.w3.org/Graphics/SVG/1.1/DTD/svg11.dtd"><svg t="1678415254375" class="icon" viewBox="0 0 1024 1024" version="1.1" xmlns="http://www.w3.org/2000/svg" p-id="1970" xmlns:xlink="http://www.w3.org/1999/xlink" width="200" height="200"><path d="M512 512m-512 0a512 512 0 1 0 1024 0 512 512 0 1 0-1024 0Z" fill="#13227a" p-id="1971"></path><path d="M220.154672 622.509925c9.488071-38.205154 25.556199-72.675046 54.968677-100.051914 13.963883-12.993943 29.257143-23.838484 46.50112-31.697346 11.122699-5.070058 11.344864-8.84325 0.939234-15.304097-54.074598-33.532464-81.912053-113.69429-39.606781-183.280701 28.866999-47.489122 88.755818-73.31806 144.134507-61.095374 59.198843 13.064385 102.378325 59.370434 107.928838 116.069469 5.247068 53.814503-14.279971 96.836844-57.836953 128.543221-9.84209 7.167079-10.060642 10.017293 1.206554 15.087351 15.918212 7.159854 30.886353 16.199982 43.193932 28.959116 2.980262 3.070573 6.482522 6.049029 4.855118 10.902341-1.701459 5.104376-6.433754 4.712427-10.647663 4.961685-0.475036 0.019868-0.939234 0.01445-1.412464 0.025287-53.733223 2.609987-64.480229 13.848285-64.48926 67.359342-0.003612 15.080126-0.086699 30.15664-0.041543 45.238573 0.036124 12.27868-5.751003 17.821967-18.268103 17.778618-65.036544-0.220359-130.062251-0.140885-195.095183-0.043349-6.520452 0.009031-12.067352-1.551543-16.326418-6.673981-0.003612-12.262424-0.003612-24.519429-0.003612-36.778241z m174.993766-173.595752c6.825703-0.805574 14.346801-1.473875 21.790232-2.611794 33.061041-5.055608 65.457393-41.701995 65.914367-73.883407 0.124629-9.199076-2.461877-12.999361-12.399697-11.01252-51.237027 10.255714-98.166222-0.760418-141.056709-29.867645-6.551158-4.448719-9.759004-3.811123-12.242556 3.661207-18.277135 55.138462 19.402409 110.891038 77.994363 113.714159z m21.898605 121.829503h0.068636c0-7.017163 0.568959-14.097543-0.131854-21.042457-1.00787-9.851121-7.56806-15.228236-17.052518-15.267973-9.289387-0.025287-14.773069 5.819639-15.038583 15.150569-0.39195 14.019875-0.440718 28.074069 0 42.101169 0.299832 9.336348 6.254938 14.861574 15.208368 15.311322 9.905308 0.478648 15.770102-5.573993 16.810484-15.222817 0.735131-6.93227 0.135466-14.012651 0.135467-21.029813z" fill="#ffffff" p-id="1972"></path><path d="M633.545926 795.896156c-39.077558 0-78.164147 0.039737-117.236286-0.012643-29.484727-0.037931-50.382686-19.676955-50.664456-49.009959-0.475036-49.430808-0.534641-98.877872 0.025287-148.30868 0.357631-30.46731 20.84016-49.927518 51.14491-50.386298 2.349892-0.037931 4.712427 0.021675 7.064124-0.0289 8.922724-0.173397 18.649216 1.793576 26.603807-1.096375 10.465236-3.816542 4.327702-15.809839 6.901564-23.903508 7.640308-24.001044 26.954213-39.740441 52.060664-40.128778 15.5371-0.236615 31.085037-0.207715 46.620331-0.030706 33.001436 0.359438 53.686261 17.086836 58.075374 49.622268 1.766483 13.093285 6.85099 16.387829 18.838869 15.771908 11.653728-0.599665 23.460985-1.271579 35.071363 2.136757 22.590387 6.639663 35.595167 22.993174 35.660191 46.526408 0.151722 49.911262 0.167978 99.824331 0.003613 149.724756-0.090311 29.20115-19.275974 48.681227-48.701096 48.964803-40.479184 0.382919-80.983656 0.093923-121.470065 0.093924l0.001806 0.065023z m1.004258-24.503173c37.674126 0 75.360895 0.187847 113.024183-0.08128 19.160376-0.128242 28.684571-8.335703 28.787526-25.357515 0.321507-48.975641 0.334151-97.951281-0.046962-146.941372-0.121017-15.710497-8.118956-23.188245-23.675924-23.863771-8.920918-0.386531-17.89241-0.130048-26.831391-0.158947-30.969439-0.088505-37.898097-6.692043-39.567043-37.740956-0.942847-17.664826-11.771132-28.8092-29.448602-29.551557-11.281647-0.473229-22.608449-0.175203-33.904546-0.137272-30.154834 0.115598-38.36952 7.732426-40.546014 37.457379-1.305897 17.901441-9.052772 26.780816-26.811522 28.859774-10.244877 1.19933-20.681213 0.841698-31.029044 0.993421-26.86029 0.400981-32.59323 5.9244-32.649223 32.268111-0.077667 43.800822-0.06683 87.596225-0.005419 131.393435 0.041543 25.89035 6.771517 32.753984 32.502919 32.846101 36.731279 0.130048 73.464364 0.034318 110.201062 0.014449z" fill="#ffffff" p-id="1973"></path><path d="M715.365862 662.747076c-0.225777 7.519292-3.816542 12.907244-8.277904 17.950209a48125.790994 48125.790994 0 0 0-61.633627 69.897081c-6.475297 7.363957-13.51594 13.898859-24.277396 9.805966-11.303321-4.322283-14.196885-13.741718-14.382925-25.036008-0.512966-31.204247-0.682751-31.334295-32.70341-32.795527-9.84209-0.447942-17.292745-4.022451-21.526523-13.133022-4.215716-9.083478-0.689976-16.476334 5.543287-23.040135 23.670506-24.896929 47.355462-49.786633 71.163241-74.567965 6.491553-6.758873 14.518392-8.512712 23.309262-5.109794 9.045547 3.500453 12.802484 10.546515 12.569481 19.996655-0.025287 0.935622 0 1.889306 0.036125 2.823121 0.372081 10.308094-2.541351 22.482014 1.968779 30.436604 5.528838 9.695786 19.026716 2.68043 28.917573 4.273516 11.259972 1.815251 17.903247 7.508454 19.294037 18.499299z m-34.316364 8.384471c-12.10167 0-19.9515-0.44433-27.732693 0.102955-11.222042 0.791124-14.868799-4.483037-14.765845-15.051227 0.086699-9.966719 1.540705-20.204371-0.484066-27.555684-16.145796 15.080126-32.354809 30.227083-50.90649 47.546921 11.837962 0 21.454275 0.321507 31.050719-0.083086 10.792161-0.460586 15.080126 4.235585 15.163212 15.016908 0.086699 9.742748-2.364341 19.944275 2.837571 31.224116 14.632184-16.705724 28.137287-32.127226 44.837592-51.200903zM634.687457 519.710751c4.217522 0 8.431432-0.016256 12.648955 0 21.322421 0.08128 26.161283 4.063994 26.294943 21.64754 0.146304 19.386153-7.743263 27.851904-26.603807 28.19328-9.831253 0.175203-19.693211 0.361244-29.504595-0.149916-15.490138-0.803768-24.647671-11.843381-24.286426-28.447957 0.337763-15.544325 6.704687-21.047875 24.588065-21.230304 5.620955-0.059605 11.243716-0.009031 16.862865-0.012643z" fill="#ffffff" p-id="1974"></path></svg>