<?xml version="1.0" standalone="no"?><!DOCTYPE svg PUBLIC "-//W3C//DTD SVG 1.1//EN" "http://www.w3.org/Graphics/SVG/1.1/DTD/svg11.dtd"><svg t="1678415248770" class="icon" viewBox="0 0 1024 1024" version="1.1" xmlns="http://www.w3.org/2000/svg" p-id="1815" xmlns:xlink="http://www.w3.org/1999/xlink" width="200" height="200"><path d="M511.998194 512m-511.998194 0a511.998194 511.998194 0 1 0 1023.996388 0 511.998194 511.998194 0 1 0-1023.996388 0Z" fill="#0061b2" p-id="1816"></path><path d="M265.033807 598.622673v1.573217c3.193396 32.078458 73.758778 57.739418 161.992598 57.739418h12.831383a175.582594 175.582594 0 0 0 84.973595 97.839296c-27.237789 8.028646-60.923782 12.831383-97.803171 12.831383-85.044037 0-153.962147-24.048006-160.379645-54.511704v-115.47161h-1.61476z m341.615705-152.385317c83.396765 0 152.350999 70.565382 152.351 157.186248 0 86.586549-67.377405 157.151931-152.351 157.151931-83.396765 0-152.385317-70.565382-152.385317-157.151931 0-86.620867 68.988552-157.186249 152.385317-157.186248z m3.189784 67.371986c-6.413885 0-9.601863 4.800931-11.218429 9.605475v117.08637h-25.657348l36.875777 52.931261 36.875776-52.931261h-25.657347v-117.08637a10.3388 10.3388 0 0 0-9.601863-9.605475h-1.616566z m-344.805489-44.904423v1.612954c3.193396 32.078458 73.758778 57.739418 161.992598 57.739418h19.243463c-11.252747 22.433246-16.055485 48.094206-16.055485 73.755166 0 12.831383 1.612954 24.048006 3.227714 35.298947h-6.417498c-85.044037 0-153.962147-24.08413-160.379645-54.546022v-113.858656h-1.611147z m322.372243-131.565025v91.42541a171.903325 171.903325 0 0 0-128.301187 76.98288c-11.25636 0-20.897959 1.612954-32.078458 1.612954-85.044037 0-153.962147-24.048006-160.379644-54.549634v-113.824338c0 33.693218 72.145824 59.350565 161.956474 59.350565 86.624479-1.612954 158.802815-28.885062 158.802815-60.959907v-0.03793z m-160.379645-81.745881c89.81065 0 161.952862 27.273914 161.952862 59.346953 0 33.689605-72.142212 59.350565-161.952862 59.350566-89.814263 0-162.026917-27.277526-162.026917-59.38669 0.036124-32.004403 72.252391-59.312635 162.063042-59.312635h-0.036125z" fill="#ffffff" p-id="1817"></path></svg>