<?xml version="1.0" standalone="no"?><!DOCTYPE svg PUBLIC "-//W3C//DTD SVG 1.1//EN" "http://www.w3.org/Graphics/SVG/1.1/DTD/svg11.dtd"><svg t="1681351080915" class="icon" viewBox="0 0 1024 1024" version="1.1" xmlns="http://www.w3.org/2000/svg" p-id="1688" xmlns:xlink="http://www.w3.org/1999/xlink" width="200" height="200"><path d="M512 512m-512 0a512 512 0 1 0 1024 0 512 512 0 1 0-1024 0Z" fill="#06B666" p-id="1689"></path><path d="M695.638333 262.425626c22.061165-1.571411 43.737604 0.399175 65.014869 5.911756 21.280878 5.518 40.195608 12.34551 56.738772 20.487947 16.557614 8.149662 29.95615 16.817709 40.202833 26.013173s15.365509 16.942339 15.365509 23.244238c0 6.310931-3.937558 10.120248-11.816288 11.422532-7.884148 1.323959-17.733463 2.499808-29.558781 3.552834-11.8199 1.058445-24.819262 3.027224-39.014341 5.90995-14.184241 2.89537-27.579165 9.334542-40.191995 19.312099a223.458247 223.458247 0 0 0-24.044394 20.890734 908.36583 908.36583 0 0 1-22.850482 22.062971 277.500333 277.500333 0 0 1-23.647025 19.705854c-8.142437 6.034579-16.945951 10.63502-26.403316 13.781454-4.728683 1.584054-10.499554 3.16269-17.336095 4.730489-6.82751 1.584054-14.050581 1.968779-21.676439 1.18488-7.613215-0.783899-15.497363-3.276482-23.647026-7.477748-8.137019-4.212104-15.889313-11.306934-23.237013-21.291715-4.726876 6.310931-8.80532 13.803129-12.220881 22.465757-3.411949 8.669853-6.433754 17.991752-9.069028 27.969309a366.192934 366.192934 0 0 0-6.699268 31.133804c-1.827894 10.779518-3.285513 20.885316-4.322283 30.342681-1.054832 7.88776-1.84415 17.740688-2.373372 29.551557a522.936659 522.936659 0 0 0-0.386531 35.071363c0.265514 11.567029 0.915753 22.203856 1.968779 31.926735 1.056638 9.721073 2.619018 16.678631 4.730489 20.885316 2.6136 4.728683 3.935752 8.666241 3.935752 11.821706 0 2.629856-1.320346 5.122438-3.935752 7.484974-2.63708 2.36976-7.63489 3.543803-14.978978 3.543802-8.404339 0-14.059612-1.174043-16.945951-3.543802-2.889951-2.362535-4.329508-4.855118-4.329508-7.484974-0.52561-3.155465 0.514773-6.82751 3.14824-11.030582 2.622631-5.259711 4.327702-11.427951 5.120632-18.530005 0.787512-7.085799 1.049414-14.706239 0.787512-22.854095-0.263708-8.137019-0.648433-16.418535-1.175849-24.826487a387.220941 387.220941 0 0 1-0.79293-24.430924c-8.400727-16.808678-16.541358-30.99292-24.430925-42.561756a312.239352 312.239352 0 0 0-26.002335-33.093553c-5.779902 12.616443-12.480976 22.073808-20.092385 28.366677-7.629471 6.312737-15.381765 10.651276-23.258688 13.010199-7.875117 2.371566-15.363703 3.40653-22.465758 3.146434-7.087605-0.254677-13.257651-0.917559-18.510137-1.970585a87.115771 87.115771 0 0 1-26.806103-9.052772 318.096922 318.096922 0 0 1-25.213018-14.978978 649.245586 649.245586 0 0 1-25.615804-17.737075c-8.668047-6.294675-17.475173-11.812675-26.405122-16.543164-13.660438-7.878729-27.712825-12.092639-42.164388-12.607412-14.449756-0.521997-27.582777-0.137273-39.40629 1.181267-11.8199 1.309509-21.539167 1.827894-29.1578 1.567799s-11.427951-3.800286-11.427951-10.640439c0-6.820285 4.327702-15.495557 13.001168-26.000529 8.666241-10.512197 20.229658-20.887122 34.677607-31.137418 14.446143-10.244877 31.392094-19.442146 50.832435-27.579165 19.443953-8.14605 39.930094-13.277519 61.471067-15.369121 33.106197-3.160884 60.560732-1.4522 82.36722 5.118826 21.79565 6.572833 38.88068 15.892925 51.22619 27.97834 12.340091 12.083608 20.092385 26.004142 23.244238 41.776049 3.16269 15.75204 2.631662 31.520336-1.567799 47.28502 16.806872 15.231849 33.368098 34.675801 49.643942 58.32102 2.63708-25.736821 9.19727-51.757219 19.705855-78.023262 4.19946-8.92453 8.137019-16.555808 11.814481-22.850483 3.691913-6.309125 8.155081-13.143859 13.409374-20.502397-8.411564-15.239074-12.742878-31.51853-13.002974-48.861849-0.265514-17.341513 4.730489-33.626388 14.977171-48.861848 10.230427-15.24088 26.134189-28.24566 47.675163-39.008922 21.533748-10.770487 49.90765-17.206047 85.121705-19.308486zM460.772004 479.161124c-29.428734-25.225661-60.421653-41.505117-92.998628-48.865461-32.571556-7.353119-66.19975-6.560189-100.882776 2.36976-1.05122 0-1.313122 0.124629-0.785705 0.382918 0.527416 0.26732 1.311315 0.408206 2.362535 0.408206 15.237267-1.584054 30.740049-2.228875 46.497507-1.966973 15.76649 0.261902 31.659415 2.617212 47.684194 7.082186 16.024779 4.468587 31.914092 11.039613 47.684194 19.705855 15.753846 8.668047 31.26024 20.359706 46.495702 35.071363l3.942977-14.187854zM750.01457 329.418306c1.05122 0 1.838731-0.130048 2.364341-0.393756 0.521997-0.258289 0-0.399175-1.575023-0.399175-38.358683-3.670238-73.03629 2.234293-104.040048 17.737075-30.989307 15.500975-58.308377 38.22141-81.953595 68.173948l7.875117 13.398536c14.184241-19.447565 28.760433-35.468732 43.735798-48.081562 14.980784-12.605606 30.218052-22.592193 45.715414-29.938088 15.497363-7.363957 30.602776-12.480976 45.314434-15.381765 14.71527-2.886339 28.903124-4.589604 42.563562-5.115213zM338.610156 732.154672c-4.19946-3.681075-2.88092-8.019614 3.935753-13.008393 6.845572-4.997809 16.826741-10.107604 29.959762-15.365509 13.129409-5.259711 27.967502-10.638633 44.526922-16.154827 16.54497-5.523419 32.436089-10.378537 47.676969-14.581609 6.840153-2.104246 12.220881-1.970585 16.158439 0.391949 3.939365 2.366147 7.622246 5.378922 11.036001 9.067222 3.415561 3.679269 7.615021 7.224878 12.605606 10.642245 4.994197 3.408336 12.217268 5.115214 21.67644 5.115213 9.455559 0 16.684049-1.706877 21.676439-5.115213 4.990584-3.417367 9.31648-6.840153 13.002974-10.246683 3.679269-3.411949 7.356732-6.314543 11.025164-8.668047 3.67385-2.371566 8.928143-2.759903 15.768296-1.18488 15.235461 4.203073 31.26024 9.19727 48.07795 14.971753 16.808678 5.778096 31.908673 11.429757 45.310821 16.942338 13.400342 5.523419 23.518784 10.777712 30.344487 15.768296 6.832928 4.990584 7.622246 8.798095 2.367954 11.427951-12.611024 6.829316-29.553363 12.480976-50.83966 16.945951-21.27004 4.463168-44.391456 7.748681-69.351602 9.843896-24.961953 2.104246-50.696968 3.151853-77.226719 3.151853-26.547814 0-51.634396-1.183074-75.279615-3.54019-23.645219-2.371566-44.651551-5.779902-63.040672-10.248489-18.392733-4.468587-31.532979-9.852927-39.411709-16.154827z" fill="#FFFFFF" p-id="1690"></path></svg>